<svg xmlns="http://www.w3.org/2000/svg" width="760" height="492" viewBox="0 0 760 492" font-family="-apple-system, BlinkMacSystemFont, 'Segoe UI', Helvetica, Arial, sans-serif">
<rect width="760" height="492" rx="8" fill="#fcfcfb"/>
<text x="72" y="28" font-size="16" font-weight="600" fill="#0b0b0b">Shared memory work-efficient scan: bank count</text>
<text x="72" y="48" font-size="12" fill="#52514e">n = 16M, 0 = original Example 39-2 layout, k = 2^k banks (Tesla T4)</text>
<line x1="72" y1="68" x2="94" y2="68" stroke="#2a78d6" stroke-width="2"/>
<circle cx="83.0" cy="68.0" r="4" stroke="#fcfcfb" stroke-width="2" fill="#2a78d6"/>
<text x="102" y="72" font-size="12" fill="#52514e">64 threads</text>
<line x1="192.0" y1="68" x2="214.0" y2="68" stroke="#eb6834" stroke-width="2"/>
<rect x="199.6" y="64.6" width="6.8" height="6.8" rx="1.5" stroke="#fcfcfb" stroke-width="2" fill="#eb6834"/>
<text x="222.0" y="72" font-size="12" fill="#52514e">128 threads</text>
<line x1="319.2" y1="68" x2="341.2" y2="68" stroke="#1baf7a" stroke-width="2"/>
<polygon points="330.2,63.0 334.5,70.5 325.9,70.5" stroke="#fcfcfb" stroke-width="2" fill="#1baf7a"/>
<text x="349.2" y="72" font-size="12" fill="#52514e">256 threads</text>
<line x1="446.4" y1="68" x2="468.4" y2="68" stroke="#eda100" stroke-width="2"/>
<polygon points="462.6,68.0 457.4,73.2 452.2,68.0 457.4,62.8" stroke="#fcfcfb" stroke-width="2" fill="#eda100"/>
<text x="476.4" y="72" font-size="12" fill="#52514e">512 threads</text>
<line x1="573.6" y1="68" x2="595.6" y2="68" stroke="#e87ba4" stroke-width="2"/>
<polygon points="584.6,73.0 580.3,65.5 588.9,65.5" stroke="#fcfcfb" stroke-width="2" fill="#e87ba4"/>
<text x="603.6" y="72" font-size="12" fill="#52514e">1024 threads</text>
<line x1="72" y1="434.0" x2="736" y2="434.0" stroke="#e1e0d9" stroke-width="1"/>
<text x="64" y="438.0" font-size="11" fill="#898781" text-anchor="end">0</text>
<line x1="72" y1="365.6" x2="736" y2="365.6" stroke="#e1e0d9" stroke-width="1"/>
<text x="64" y="369.6" font-size="11" fill="#898781" text-anchor="end">0.5</text>
<line x1="72" y1="297.2" x2="736" y2="297.2" stroke="#e1e0d9" stroke-width="1"/>
<text x="64" y="301.2" font-size="11" fill="#898781" text-anchor="end">1</text>
<line x1="72" y1="228.8" x2="736" y2="228.8" stroke="#e1e0d9" stroke-width="1"/>
<text x="64" y="232.8" font-size="11" fill="#898781" text-anchor="end">1.5</text>
<line x1="72" y1="160.4" x2="736" y2="160.4" stroke="#e1e0d9" stroke-width="1"/>
<text x="64" y="164.4" font-size="11" fill="#898781" text-anchor="end">2</text>
<line x1="72" y1="92.0" x2="736" y2="92.0" stroke="#e1e0d9" stroke-width="1"/>
<text x="64" y="96.0" font-size="11" fill="#898781" text-anchor="end">2.5</text>
<line x1="72" y1="434" x2="736" y2="434" stroke="#c3c2b7" stroke-width="1"/>
<line x1="72.0" y1="434" x2="72.0" y2="438" stroke="#c3c2b7" stroke-width="1"/>
<text x="72.0" y="452" font-size="11" fill="#898781" text-anchor="middle">0</text>
<line x1="166.9" y1="434" x2="166.9" y2="438" stroke="#c3c2b7" stroke-width="1"/>
<text x="166.9" y="452" font-size="11" fill="#898781" text-anchor="middle">1</text>
<line x1="261.7" y1="434" x2="261.7" y2="438" stroke="#c3c2b7" stroke-width="1"/>
<text x="261.7" y="452" font-size="11" fill="#898781" text-anchor="middle">2</text>
<line x1="356.6" y1="434" x2="356.6" y2="438" stroke="#c3c2b7" stroke-width="1"/>
<text x="356.6" y="452" font-size="11" fill="#898781" text-anchor="middle">3</text>
<line x1="451.4" y1="434" x2="451.4" y2="438" stroke="#c3c2b7" stroke-width="1"/>
<text x="451.4" y="452" font-size="11" fill="#898781" text-anchor="middle">4</text>
<line x1="546.3" y1="434" x2="546.3" y2="438" stroke="#c3c2b7" stroke-width="1"/>
<text x="546.3" y="452" font-size="11" fill="#898781" text-anchor="middle">5</text>
<line x1="641.1" y1="434" x2="641.1" y2="438" stroke="#c3c2b7" stroke-width="1"/>
<text x="641.1" y="452" font-size="11" fill="#898781" text-anchor="middle">6</text>
<line x1="736.0" y1="434" x2="736.0" y2="438" stroke="#c3c2b7" stroke-width="1"/>
<text x="736.0" y="452" font-size="11" fill="#898781" text-anchor="middle">7</text>
<text x="404.0" y="480" font-size="12" fill="#52514e" text-anchor="middle">log2(number of banks)</text>
<text transform="translate(16 263.0) rotate(-90)" font-size="12" fill="#52514e" text-anchor="middle">Time (ms)</text>
<path d="M72.0,203.8 L166.9,265.3 L261.7,257.4 L356.6,249.0 L451.4,261.6 L546.3,275.0 L641.1,253.4 L736.0,212.8" fill="none" stroke="#2a78d6" stroke-width="2" stroke-linejoin="round" stroke-linecap="round"/>
<circle cx="72.0" cy="203.8" r="4.5" stroke="#fcfcfb" stroke-width="2" fill="#2a78d6"/>
<title>64 threads: 0 -&gt; 1.683 ms</title>
<circle cx="166.9" cy="265.3" r="4.5" stroke="#fcfcfb" stroke-width="2" fill="#2a78d6"/>
<title>64 threads: 1 -&gt; 1.233 ms</title>
<circle cx="261.7" cy="257.4" r="4.5" stroke="#fcfcfb" stroke-width="2" fill="#2a78d6"/>
<title>64 threads: 2 -&gt; 1.291 ms</title>
<circle cx="356.6" cy="249.0" r="4.5" stroke="#fcfcfb" stroke-width="2" fill="#2a78d6"/>
<title>64 threads: 3 -&gt; 1.352 ms</title>
<circle cx="451.4" cy="261.6" r="4.5" stroke="#fcfcfb" stroke-width="2" fill="#2a78d6"/>
<title>64 threads: 4 -&gt; 1.260 ms</title>
<circle cx="546.3" cy="275.0" r="4.5" stroke="#fcfcfb" stroke-width="2" fill="#2a78d6"/>
<title>64 threads: 5 -&gt; 1.162 ms</title>
<circle cx="641.1" cy="253.4" r="4.5" stroke="#fcfcfb" stroke-width="2" fill="#2a78d6"/>
<title>64 threads: 6 -&gt; 1.320 ms</title>
<circle cx="736.0" cy="212.8" r="4.5" stroke="#fcfcfb" stroke-width="2" fill="#2a78d6"/>
<title>64 threads: 7 -&gt; 1.617 ms</title>
<path d="M72.0,215.4 L166.9,270.1 L261.7,271.3 L356.6,262.2 L451.4,271.6 L546.3,277.1 L641.1,272.2 L736.0,256.7" fill="none" stroke="#eb6834" stroke-width="2" stroke-linejoin="round" stroke-linecap="round"/>
<rect x="68.2" y="211.6" width="7.6" height="7.6" rx="1.5" stroke="#fcfcfb" stroke-width="2" fill="#eb6834"/>
<title>128 threads: 0 -&gt; 1.598 ms</title>
<rect x="163.0" y="266.3" width="7.6" height="7.6" rx="1.5" stroke="#fcfcfb" stroke-width="2" fill="#eb6834"/>
<title>128 threads: 1 -&gt; 1.198 ms</title>
<rect x="257.9" y="267.5" width="7.6" height="7.6" rx="1.5" stroke="#fcfcfb" stroke-width="2" fill="#eb6834"/>
<title>128 threads: 2 -&gt; 1.189 ms</title>
<rect x="352.7" y="258.4" width="7.6" height="7.6" rx="1.5" stroke="#fcfcfb" stroke-width="2" fill="#eb6834"/>
<title>128 threads: 3 -&gt; 1.256 ms</title>
<rect x="447.6" y="267.8" width="7.6" height="7.6" rx="1.5" stroke="#fcfcfb" stroke-width="2" fill="#eb6834"/>
<title>128 threads: 4 -&gt; 1.187 ms</title>
<rect x="542.5" y="273.3" width="7.6" height="7.6" rx="1.5" stroke="#fcfcfb" stroke-width="2" fill="#eb6834"/>
<title>128 threads: 5 -&gt; 1.147 ms</title>
<rect x="637.3" y="268.4" width="7.6" height="7.6" rx="1.5" stroke="#fcfcfb" stroke-width="2" fill="#eb6834"/>
<title>128 threads: 6 -&gt; 1.183 ms</title>
<rect x="732.2" y="252.9" width="7.6" height="7.6" rx="1.5" stroke="#fcfcfb" stroke-width="2" fill="#eb6834"/>
<title>128 threads: 7 -&gt; 1.296 ms</title>
<path d="M72.0,219.2 L166.9,261.6 L261.7,264.5 L356.6,258.0 L451.4,264.1 L546.3,269.3 L641.1,265.5 L736.0,258.7" fill="none" stroke="#1baf7a" stroke-width="2" stroke-linejoin="round" stroke-linecap="round"/>
<polygon points="72.0,213.5 76.9,222.0 67.1,222.0" stroke="#fcfcfb" stroke-width="2" fill="#1baf7a"/>
<title>256 threads: 0 -&gt; 1.570 ms</title>
<polygon points="166.9,256.0 171.7,264.4 162.0,264.4" stroke="#fcfcfb" stroke-width="2" fill="#1baf7a"/>
<title>256 threads: 1 -&gt; 1.260 ms</title>
<polygon points="261.7,258.9 266.6,267.3 256.8,267.3" stroke="#fcfcfb" stroke-width="2" fill="#1baf7a"/>
<title>256 threads: 2 -&gt; 1.239 ms</title>
<polygon points="356.6,252.4 361.4,260.8 351.7,260.8" stroke="#fcfcfb" stroke-width="2" fill="#1baf7a"/>
<title>256 threads: 3 -&gt; 1.286 ms</title>
<polygon points="451.4,258.5 456.3,266.9 446.6,266.9" stroke="#fcfcfb" stroke-width="2" fill="#1baf7a"/>
<title>256 threads: 4 -&gt; 1.242 ms</title>
<polygon points="546.3,263.6 551.2,272.1 541.4,272.1" stroke="#fcfcfb" stroke-width="2" fill="#1baf7a"/>
<title>256 threads: 5 -&gt; 1.204 ms</title>
<polygon points="641.1,259.9 646.0,268.4 636.3,268.4" stroke="#fcfcfb" stroke-width="2" fill="#1baf7a"/>
<title>256 threads: 6 -&gt; 1.231 ms</title>
<polygon points="736.0,253.1 740.9,261.5 731.1,261.5" stroke="#fcfcfb" stroke-width="2" fill="#1baf7a"/>
<title>256 threads: 7 -&gt; 1.281 ms</title>
<path d="M72.0,202.4 L166.9,240.6 L261.7,244.4 L356.6,237.5 L451.4,245.0 L546.3,249.6 L641.1,245.9 L736.0,238.2" fill="none" stroke="#eda100" stroke-width="2" stroke-linejoin="round" stroke-linecap="round"/>
<polygon points="77.8,202.4 72.0,208.2 66.2,202.4 72.0,196.5" stroke="#fcfcfb" stroke-width="2" fill="#eda100"/>
<title>512 threads: 0 -&gt; 1.693 ms</title>
<polygon points="172.7,240.6 166.9,246.4 161.0,240.6 166.9,234.7" stroke="#fcfcfb" stroke-width="2" fill="#eda100"/>
<title>512 threads: 1 -&gt; 1.414 ms</title>
<polygon points="267.6,244.4 261.7,250.3 255.9,244.4 261.7,238.6" stroke="#fcfcfb" stroke-width="2" fill="#eda100"/>
<title>512 threads: 2 -&gt; 1.386 ms</title>
<polygon points="362.4,237.5 356.6,243.4 350.7,237.5 356.6,231.7" stroke="#fcfcfb" stroke-width="2" fill="#eda100"/>
<title>512 threads: 3 -&gt; 1.436 ms</title>
<polygon points="457.3,245.0 451.4,250.9 445.6,245.0 451.4,239.2" stroke="#fcfcfb" stroke-width="2" fill="#eda100"/>
<title>512 threads: 4 -&gt; 1.381 ms</title>
<polygon points="552.1,249.6 546.3,255.5 540.4,249.6 546.3,243.8" stroke="#fcfcfb" stroke-width="2" fill="#eda100"/>
<title>512 threads: 5 -&gt; 1.348 ms</title>
<polygon points="647.0,245.9 641.1,251.7 635.3,245.9 641.1,240.0" stroke="#fcfcfb" stroke-width="2" fill="#eda100"/>
<title>512 threads: 6 -&gt; 1.375 ms</title>
<polygon points="741.9,238.2 736.0,244.1 730.1,238.2 736.0,232.4" stroke="#fcfcfb" stroke-width="2" fill="#eda100"/>
<title>512 threads: 7 -&gt; 1.431 ms</title>
<path d="M72.0,159.5 L166.9,205.1 L261.7,213.6 L356.6,203.8 L451.4,215.6 L546.3,222.7 L641.1,218.7 L736.0,204.3" fill="none" stroke="#e87ba4" stroke-width="2" stroke-linejoin="round" stroke-linecap="round"/>
<polygon points="72.0,165.2 67.1,156.7 76.9,156.7" stroke="#fcfcfb" stroke-width="2" fill="#e87ba4"/>
<title>1024 threads: 0 -&gt; 2.006 ms</title>
<polygon points="166.9,210.7 162.0,202.3 171.7,202.3" stroke="#fcfcfb" stroke-width="2" fill="#e87ba4"/>
<title>1024 threads: 1 -&gt; 1.673 ms</title>
<polygon points="261.7,219.2 256.8,210.8 266.6,210.8" stroke="#fcfcfb" stroke-width="2" fill="#e87ba4"/>
<title>1024 threads: 2 -&gt; 1.611 ms</title>
<polygon points="356.6,209.4 351.7,201.0 361.4,201.0" stroke="#fcfcfb" stroke-width="2" fill="#e87ba4"/>
<title>1024 threads: 3 -&gt; 1.683 ms</title>
<polygon points="451.4,221.2 446.6,212.8 456.3,212.8" stroke="#fcfcfb" stroke-width="2" fill="#e87ba4"/>
<title>1024 threads: 4 -&gt; 1.597 ms</title>
<polygon points="546.3,228.4 541.4,219.9 551.2,219.9" stroke="#fcfcfb" stroke-width="2" fill="#e87ba4"/>
<title>1024 threads: 5 -&gt; 1.544 ms</title>
<polygon points="641.1,224.3 636.3,215.9 646.0,215.9" stroke="#fcfcfb" stroke-width="2" fill="#e87ba4"/>
<title>1024 threads: 6 -&gt; 1.574 ms</title>
<polygon points="736.0,210.0 731.1,201.5 740.9,201.5" stroke="#fcfcfb" stroke-width="2" fill="#e87ba4"/>
<title>1024 threads: 7 -&gt; 1.679 ms</title>
</svg>